<svg width="467" height="125" viewBox="0 0 467 125" fill="none" xmlns="http://www.w3.org/2000/svg">
<rect x="2.5" y="2.5" width="462" height="120" rx="12.5" stroke="#FFB91D" stroke-width="5"/>
<path d="M65.4582 74.6666V49.877L57.5498 57.7854L53.2915 53.375L68.4998 38.1666L83.7082 53.375L79.4498 57.7854L71.5415 49.877V74.6666H65.4582ZM50.2498 86.8333C48.5769 86.8333 47.1448 86.2376 45.9535 85.0463C44.7622 83.855 44.1665 82.4229 44.1665 80.75V71.625H50.2498V80.75H86.7498V71.625H92.8332V80.75C92.8332 82.4229 92.2375 83.855 91.0462 85.0463C89.8549 86.2376 88.4228 86.8333 86.7498 86.8333H50.2498Z" fill="#FFB91D"/>
<path d="M161.444 66.974C161.444 67.9127 161.165 68.712 160.608 69.372C160.065 70.0173 159.266 70.5087 158.21 70.846C157.154 71.1833 155.871 71.352 154.36 71.352C152.82 71.352 151.471 71.1613 150.312 70.78C149.153 70.3987 148.251 69.8633 147.606 69.174C146.961 68.4847 146.616 67.6853 146.572 66.776H150.73C150.818 67.1427 151.023 67.4653 151.346 67.744C151.683 68.0227 152.116 68.2353 152.644 68.382C153.172 68.514 153.795 68.58 154.514 68.58C155.482 68.58 156.215 68.4773 156.714 68.272C157.213 68.0667 157.462 67.7587 157.462 67.348C157.462 67.04 157.279 66.8053 156.912 66.644C156.56 66.4827 155.922 66.3653 154.998 66.292L152.71 66.116C151.273 65.9987 150.129 65.7713 149.278 65.434C148.427 65.082 147.819 64.6347 147.452 64.092C147.1 63.5493 146.924 62.9407 146.924 62.266C146.924 61.342 147.21 60.5793 147.782 59.978C148.369 59.362 149.175 58.9 150.202 58.592C151.229 58.2693 152.431 58.108 153.81 58.108C155.189 58.108 156.413 58.2913 157.484 58.658C158.569 59.0247 159.435 59.5307 160.08 60.176C160.74 60.8213 161.114 61.5767 161.202 62.442H157.044C156.985 62.1487 156.824 61.8773 156.56 61.628C156.311 61.3787 155.944 61.1807 155.46 61.034C154.991 60.8727 154.375 60.792 153.612 60.792C152.747 60.792 152.087 60.8873 151.632 61.078C151.177 61.2687 150.95 61.5473 150.95 61.914C150.95 62.1927 151.089 62.42 151.368 62.596C151.647 62.7573 152.175 62.8673 152.952 62.926L155.922 63.146C157.33 63.2633 158.43 63.4907 159.222 63.828C160.029 64.1507 160.601 64.576 160.938 65.104C161.275 65.632 161.444 66.2553 161.444 66.974ZM170.67 71.352C169.174 71.352 167.832 71.0733 166.644 70.516C165.471 69.9587 164.547 69.1813 163.872 68.184C163.198 67.1867 162.86 66.0207 162.86 64.686C162.86 63.3807 163.183 62.2367 163.828 61.254C164.474 60.2713 165.361 59.5013 166.49 58.944C167.634 58.3867 168.925 58.108 170.362 58.108C171.829 58.108 173.09 58.4307 174.146 59.076C175.202 59.7213 176.016 60.6307 176.588 61.804C177.16 62.9773 177.446 64.356 177.446 65.94H166.138V63.366H175.202L173.728 64.29C173.684 63.6007 173.516 63.0213 173.222 62.552C172.944 62.068 172.57 61.7013 172.1 61.452C171.631 61.188 171.074 61.056 170.428 61.056C169.724 61.056 169.116 61.1953 168.602 61.474C168.089 61.7527 167.686 62.1413 167.392 62.64C167.114 63.1387 166.974 63.718 166.974 64.378C166.974 65.214 167.158 65.9253 167.524 66.512C167.906 67.0987 168.448 67.546 169.152 67.854C169.871 68.162 170.744 68.316 171.77 68.316C172.709 68.316 173.648 68.1913 174.586 67.942C175.525 67.678 176.368 67.3113 177.116 66.842V69.504C176.266 70.0907 175.29 70.5453 174.19 70.868C173.105 71.1907 171.932 71.352 170.67 71.352ZM184.828 71.33C183.669 71.33 182.672 71.0953 181.836 70.626C181.015 70.142 180.384 69.46 179.944 68.58C179.519 67.7 179.306 66.6587 179.306 65.456V58.46H183.398V64.862C183.398 65.874 183.64 66.6513 184.124 67.194C184.608 67.7367 185.305 68.008 186.214 68.008C186.889 68.008 187.461 67.8687 187.93 67.59C188.399 67.3113 188.759 66.908 189.008 66.38C189.272 65.852 189.404 65.2287 189.404 64.51L190.68 65.192C190.533 66.512 190.181 67.634 189.624 68.558C189.081 69.4673 188.392 70.1567 187.556 70.626C186.735 71.0953 185.825 71.33 184.828 71.33ZM190.196 71L189.404 66.116V58.46H193.474V66.732L194.288 71H190.196ZM213.265 71L212.715 66.446L213.309 64.73L212.715 63.036L213.265 58.46H217.511L216.741 64.73L217.511 71H213.265ZM214.277 64.73C214.057 66.0647 213.639 67.2307 213.023 68.228C212.407 69.2107 211.629 69.9807 210.691 70.538C209.752 71.0807 208.696 71.352 207.523 71.352C206.291 71.352 205.205 71.0733 204.267 70.516C203.343 69.9587 202.617 69.1887 202.089 68.206C201.561 67.2087 201.297 66.05 201.297 64.73C201.297 63.41 201.561 62.2587 202.089 61.276C202.617 60.2787 203.343 59.5013 204.267 58.944C205.205 58.3867 206.291 58.108 207.523 58.108C208.696 58.108 209.752 58.3867 210.691 58.944C211.629 59.4867 212.407 60.2493 213.023 61.232C213.653 62.2147 214.071 63.3807 214.277 64.73ZM205.433 64.73C205.433 65.4047 205.572 66.006 205.851 66.534C206.129 67.0473 206.511 67.458 206.995 67.766C207.493 68.0593 208.065 68.206 208.711 68.206C209.356 68.206 209.965 68.0593 210.537 67.766C211.123 67.458 211.637 67.0473 212.077 66.534C212.517 66.006 212.847 65.4047 213.067 64.73C212.847 64.0553 212.517 63.4613 212.077 62.948C211.637 62.42 211.123 62.0093 210.537 61.716C209.965 61.408 209.356 61.254 208.711 61.254C208.065 61.254 207.493 61.408 206.995 61.716C206.511 62.0093 206.129 62.42 205.851 62.948C205.572 63.4613 205.433 64.0553 205.433 64.73ZM209.943 53.136H213.925L210.999 57.206H207.193L209.943 53.136ZM219.83 54.06H223.9V71H219.83V54.06ZM226.533 54.06H230.603V62.266L230.053 63.344V66.292L230.603 67.348V71H226.533V54.06ZM229.239 64.73C229.459 63.3807 229.877 62.2147 230.493 61.232C231.109 60.2493 231.886 59.4867 232.825 58.944C233.764 58.3867 234.82 58.108 235.993 58.108C237.225 58.108 238.303 58.3867 239.227 58.944C240.166 59.5013 240.899 60.2787 241.427 61.276C241.955 62.2587 242.219 63.41 242.219 64.73C242.219 66.05 241.955 67.2087 241.427 68.206C240.899 69.1887 240.166 69.9587 239.227 70.516C238.303 71.0733 237.225 71.352 235.993 71.352C234.82 71.352 233.764 71.0807 232.825 70.538C231.886 69.9807 231.109 69.2107 230.493 68.228C229.877 67.2307 229.459 66.0647 229.239 64.73ZM238.083 64.73C238.083 64.0553 237.944 63.4613 237.665 62.948C237.386 62.42 236.998 62.0093 236.499 61.716C236.015 61.408 235.45 61.254 234.805 61.254C234.16 61.254 233.544 61.408 232.957 61.716C232.385 62.0093 231.879 62.42 231.439 62.948C231.014 63.4613 230.684 64.0553 230.449 64.73C230.684 65.4047 231.014 66.006 231.439 66.534C231.879 67.0473 232.385 67.458 232.957 67.766C233.544 68.0593 234.16 68.206 234.805 68.206C235.45 68.206 236.015 68.0593 236.499 67.766C236.998 67.458 237.386 67.0473 237.665 66.534C237.944 66.006 238.083 65.4047 238.083 64.73ZM249.604 71.33C248.445 71.33 247.448 71.0953 246.612 70.626C245.79 70.142 245.16 69.46 244.72 68.58C244.294 67.7 244.082 66.6587 244.082 65.456V58.46H248.174V64.862C248.174 65.874 248.416 66.6513 248.9 67.194C249.384 67.7367 250.08 68.008 250.99 68.008C251.664 68.008 252.236 67.8687 252.706 67.59C253.175 67.3113 253.534 66.908 253.784 66.38C254.048 65.852 254.18 65.2287 254.18 64.51L255.456 65.192C255.309 66.512 254.957 67.634 254.4 68.558C253.857 69.4673 253.168 70.1567 252.332 70.626C251.51 71.0953 250.601 71.33 249.604 71.33ZM254.972 71L254.18 66.116V58.46H258.25V66.732L259.064 71H254.972ZM260.507 58.46H264.577L265.391 63.344V71H261.299V62.728L260.507 58.46ZM269.791 58.108C270.935 58.108 271.903 58.35 272.695 58.834C273.502 59.318 274.111 60 274.521 60.88C274.947 61.7453 275.159 62.7867 275.159 64.004V71H271.067V64.62C271.067 63.5787 270.84 62.794 270.385 62.266C269.931 61.7233 269.263 61.452 268.383 61.452C267.767 61.452 267.232 61.5987 266.777 61.892C266.337 62.1707 265.993 62.574 265.743 63.102C265.509 63.6153 265.391 64.2313 265.391 64.95L264.093 64.268C264.255 62.9333 264.599 61.8113 265.127 60.902C265.67 59.9927 266.337 59.3033 267.129 58.834C267.936 58.35 268.823 58.108 269.791 58.108ZM279.537 58.108C280.681 58.108 281.657 58.35 282.463 58.834C283.27 59.318 283.879 60 284.289 60.88C284.715 61.7453 284.927 62.7867 284.927 64.004V71H280.835V64.62C280.835 63.5787 280.608 62.794 280.153 62.266C279.699 61.7233 279.031 61.452 278.151 61.452C277.535 61.452 277 61.5987 276.545 61.892C276.105 62.1707 275.761 62.574 275.511 63.102C275.277 63.6153 275.159 64.2313 275.159 64.95L273.861 64.268C274.023 62.9333 274.367 61.8113 274.895 60.902C275.423 59.9927 276.091 59.3033 276.897 58.834C277.704 58.35 278.584 58.108 279.537 58.108ZM304.403 71L303.853 66.27L304.601 64.774L303.875 62.882L304.887 54.06H309.133L307.879 64.422L308.627 71H304.403ZM305.349 64.73C305.129 66.0647 304.711 67.2307 304.095 68.228C303.479 69.2107 302.702 69.9807 301.763 70.538C300.824 71.0807 299.768 71.352 298.595 71.352C297.363 71.352 296.278 71.0733 295.339 70.516C294.415 69.9587 293.689 69.1887 293.161 68.206C292.633 67.2087 292.369 66.05 292.369 64.73C292.369 63.41 292.633 62.2587 293.161 61.276C293.689 60.2787 294.415 59.5013 295.339 58.944C296.278 58.3867 297.363 58.108 298.595 58.108C299.768 58.108 300.824 58.3867 301.763 58.944C302.702 59.4867 303.479 60.2493 304.095 61.232C304.726 62.2147 305.144 63.3807 305.349 64.73ZM296.505 64.73C296.505 65.4047 296.644 66.006 296.923 66.534C297.202 67.0473 297.583 67.458 298.067 67.766C298.566 68.0593 299.138 68.206 299.783 68.206C300.428 68.206 301.037 68.0593 301.609 67.766C302.196 67.458 302.709 67.0473 303.149 66.534C303.589 66.006 303.919 65.4047 304.139 64.73C303.919 64.0553 303.589 63.4613 303.149 62.948C302.709 62.42 302.196 62.0093 301.609 61.716C301.037 61.408 300.428 61.254 299.783 61.254C299.138 61.254 298.566 61.408 298.067 61.716C297.583 62.0093 297.202 62.42 296.923 62.948C296.644 63.4613 296.505 64.0553 296.505 64.73ZM318.075 71.352C316.579 71.352 315.237 71.0733 314.049 70.516C312.875 69.9587 311.951 69.1813 311.277 68.184C310.602 67.1867 310.265 66.0207 310.265 64.686C310.265 63.3807 310.587 62.2367 311.233 61.254C311.878 60.2713 312.765 59.5013 313.895 58.944C315.039 58.3867 316.329 58.108 317.767 58.108C319.233 58.108 320.495 58.4307 321.551 59.076C322.607 59.7213 323.421 60.6307 323.993 61.804C324.565 62.9773 324.851 64.356 324.851 65.94H313.543V63.366H322.607L321.133 64.29C321.089 63.6007 320.92 63.0213 320.627 62.552C320.348 62.068 319.974 61.7013 319.505 61.452C319.035 61.188 318.478 61.056 317.833 61.056C317.129 61.056 316.52 61.1953 316.007 61.474C315.493 61.7527 315.09 62.1413 314.797 62.64C314.518 63.1387 314.379 63.718 314.379 64.378C314.379 65.214 314.562 65.9253 314.929 66.512C315.31 67.0987 315.853 67.546 316.557 67.854C317.275 68.162 318.148 68.316 319.175 68.316C320.113 68.316 321.052 68.1913 321.991 67.942C322.929 67.678 323.773 67.3113 324.521 66.842V69.504C323.67 70.0907 322.695 70.5453 321.595 70.868C320.509 71.1907 319.336 71.352 318.075 71.352ZM340.987 56.766C339.99 56.766 339.279 56.9567 338.853 57.338C338.443 57.7193 338.237 58.3207 338.237 59.142V71H334.145V59.384C334.145 58.196 334.38 57.184 334.849 56.348C335.319 55.4973 336.023 54.8447 336.961 54.39C337.915 53.9353 339.095 53.708 340.503 53.708C341.149 53.708 341.721 53.7593 342.219 53.862C342.718 53.95 343.239 54.0747 343.781 54.236V57.272C343.341 57.1107 342.894 56.986 342.439 56.898C341.985 56.81 341.501 56.766 340.987 56.766ZM331.571 62.486V59.45H343.495V62.486H331.571ZM351.979 71.352C350.395 71.352 349.009 71.0733 347.821 70.516C346.633 69.9587 345.709 69.1813 345.049 68.184C344.389 67.1867 344.059 66.0353 344.059 64.73C344.059 63.41 344.389 62.2587 345.049 61.276C345.709 60.2787 346.633 59.5013 347.821 58.944C349.024 58.3867 350.41 58.108 351.979 58.108C353.563 58.108 354.949 58.3867 356.137 58.944C357.325 59.5013 358.249 60.2787 358.909 61.276C359.584 62.2587 359.921 63.41 359.921 64.73C359.921 66.05 359.584 67.2087 358.909 68.206C358.249 69.1887 357.325 69.9587 356.137 70.516C354.949 71.0733 353.563 71.352 351.979 71.352ZM351.979 68.272C352.786 68.272 353.468 68.1327 354.025 67.854C354.597 67.5607 355.03 67.15 355.323 66.622C355.631 66.094 355.785 65.4633 355.785 64.73C355.785 63.9967 355.631 63.366 355.323 62.838C355.03 62.2953 354.597 61.8847 354.025 61.606C353.468 61.3127 352.786 61.166 351.979 61.166C351.202 61.166 350.527 61.3127 349.955 61.606C349.383 61.8847 348.943 62.2953 348.635 62.838C348.327 63.366 348.173 63.9967 348.173 64.73C348.173 65.4633 348.327 66.094 348.635 66.622C348.943 67.15 349.383 67.5607 349.955 67.854C350.527 68.1327 351.202 68.272 351.979 68.272ZM360.503 61.496V59.714L363.099 58.768L364.837 55.116H367.191V58.46H372.603V61.496H367.191V65.632C367.191 66.5707 367.381 67.2307 367.763 67.612C368.144 67.9787 368.826 68.162 369.809 68.162C370.425 68.162 370.975 68.1107 371.459 68.008C371.943 67.8907 372.397 67.7367 372.823 67.546V70.648C372.383 70.824 371.803 70.9853 371.085 71.132C370.381 71.2787 369.647 71.352 368.885 71.352C367.55 71.352 366.45 71.1393 365.585 70.714C364.734 70.2887 364.103 69.6947 363.693 68.932C363.297 68.1547 363.099 67.2453 363.099 66.204V61.496H360.503ZM381.606 71.352C380.022 71.352 378.636 71.0733 377.448 70.516C376.26 69.9587 375.336 69.1813 374.676 68.184C374.016 67.1867 373.686 66.0353 373.686 64.73C373.686 63.41 374.016 62.2587 374.676 61.276C375.336 60.2787 376.26 59.5013 377.448 58.944C378.651 58.3867 380.037 58.108 381.606 58.108C383.19 58.108 384.576 58.3867 385.764 58.944C386.952 59.5013 387.876 60.2787 388.536 61.276C389.211 62.2587 389.548 63.41 389.548 64.73C389.548 66.05 389.211 67.2087 388.536 68.206C387.876 69.1887 386.952 69.9587 385.764 70.516C384.576 71.0733 383.19 71.352 381.606 71.352ZM381.606 68.272C382.413 68.272 383.095 68.1327 383.652 67.854C384.224 67.5607 384.657 67.15 384.95 66.622C385.258 66.094 385.412 65.4633 385.412 64.73C385.412 63.9967 385.258 63.366 384.95 62.838C384.657 62.2953 384.224 61.8847 383.652 61.606C383.095 61.3127 382.413 61.166 381.606 61.166C380.829 61.166 380.154 61.3127 379.582 61.606C379.01 61.8847 378.57 62.2953 378.262 62.838C377.954 63.366 377.8 63.9967 377.8 64.73C377.8 65.4633 377.954 66.094 378.262 66.622C378.57 67.15 379.01 67.5607 379.582 67.854C380.154 68.1327 380.829 68.272 381.606 68.272ZM405.7 66.974C405.7 67.9127 405.421 68.712 404.864 69.372C404.321 70.0173 403.522 70.5087 402.466 70.846C401.41 71.1833 400.127 71.352 398.616 71.352C397.076 71.352 395.727 71.1613 394.568 70.78C393.409 70.3987 392.507 69.8633 391.862 69.174C391.217 68.4847 390.872 67.6853 390.828 66.776H394.986C395.074 67.1427 395.279 67.4653 395.602 67.744C395.939 68.0227 396.372 68.2353 396.9 68.382C397.428 68.514 398.051 68.58 398.77 68.58C399.738 68.58 400.471 68.4773 400.97 68.272C401.469 68.0667 401.718 67.7587 401.718 67.348C401.718 67.04 401.535 66.8053 401.168 66.644C400.816 66.4827 400.178 66.3653 399.254 66.292L396.966 66.116C395.529 65.9987 394.385 65.7713 393.534 65.434C392.683 65.082 392.075 64.6347 391.708 64.092C391.356 63.5493 391.18 62.9407 391.18 62.266C391.18 61.342 391.466 60.5793 392.038 59.978C392.625 59.362 393.431 58.9 394.458 58.592C395.485 58.2693 396.687 58.108 398.066 58.108C399.445 58.108 400.669 58.2913 401.74 58.658C402.825 59.0247 403.691 59.5307 404.336 60.176C404.996 60.8213 405.37 61.5767 405.458 62.442H401.3C401.241 62.1487 401.08 61.8773 400.816 61.628C400.567 61.3787 400.2 61.1807 399.716 61.034C399.247 60.8727 398.631 60.792 397.868 60.792C397.003 60.792 396.343 60.8873 395.888 61.078C395.433 61.2687 395.206 61.5473 395.206 61.914C395.206 62.1927 395.345 62.42 395.624 62.596C395.903 62.7573 396.431 62.8673 397.208 62.926L400.178 63.146C401.586 63.2633 402.686 63.4907 403.478 63.828C404.285 64.1507 404.857 64.576 405.194 65.104C405.531 65.632 405.7 66.2553 405.7 66.974Z" fill="#FFB91D"/>
</svg>