<svg width="50" height="59" viewBox="0 0 50 59" fill="none" xmlns="http://www.w3.org/2000/svg">
<path d="M17.6471 47.2C16.0294 47.2 14.6446 46.6223 13.4926 45.4669C12.3407 44.3115 11.7647 42.9225 11.7647 41.3V5.9C11.7647 4.2775 12.3407 2.88854 13.4926 1.73312C14.6446 0.577708 16.0294 0 17.6471 0H44.1176C45.7353 0 47.1201 0.577708 48.2721 1.73312C49.424 2.88854 50 4.2775 50 5.9V41.3C50 42.9225 49.424 44.3115 48.2721 45.4669C47.1201 46.6223 45.7353 47.2 44.1176 47.2H17.6471ZM17.6471 41.3H44.1176V5.9H17.6471V41.3ZM5.88235 59C4.26471 59 2.8799 58.4223 1.72794 57.2669C0.57598 56.1115 0 54.7225 0 53.1V11.8H5.88235V53.1H38.2353V59H5.88235Z" fill="#49454F"/>
</svg>
