<svg width="57" height="57" viewBox="0 0 57 57" fill="none" xmlns="http://www.w3.org/2000/svg">
<path d="M11.875 45.125H15.2594L38.475 21.9094L35.0906 18.525L11.875 41.7406V45.125ZM7.125 49.875V39.7812L38.475 8.49063C38.95 8.05521 39.4745 7.71875 40.0484 7.48125C40.6224 7.24375 41.226 7.125 41.8594 7.125C42.4927 7.125 43.1063 7.24375 43.7 7.48125C44.2938 7.71875 44.8083 8.075 45.2438 8.55L48.5094 11.875C48.9844 12.3104 49.3307 12.825 49.5484 13.4188C49.7661 14.0125 49.875 14.6063 49.875 15.2C49.875 15.8333 49.7661 16.437 49.5484 17.0109C49.3307 17.5849 48.9844 18.1094 48.5094 18.5844L17.2188 49.875H7.125ZM36.7531 20.2469L35.0906 18.525L38.475 21.9094L36.7531 20.2469Z" fill="#FEF7FF"/>
</svg>
