<svg width="133" height="133" viewBox="0 0 133 133" fill="none" xmlns="http://www.w3.org/2000/svg">
<path d="M66.5 18.1364C80.0015 18.1364 91.4375 22.8216 100.808 32.192C110.178 41.5625 114.864 52.9985 114.864 66.5C114.864 80.0015 110.178 91.4375 100.808 100.808C91.4375 110.178 80.0015 114.864 66.5 114.864C52.9985 114.864 41.5625 110.178 32.192 100.808C22.8216 91.4375 18.1364 80.0015 18.1364 66.5C18.1364 52.9985 22.8216 41.5625 32.192 32.192C41.5625 22.8216 52.9985 18.1364 66.5 18.1364ZM66.5 102.773C76.5758 102.773 85.1402 99.2462 92.1932 92.1932C99.2462 85.1402 102.773 76.5758 102.773 66.5C102.773 56.4242 99.2462 47.8599 92.1932 40.8068C85.1402 33.7538 76.5758 30.2273 66.5 30.2273C56.4242 30.2273 47.8599 33.7538 40.8068 40.8068C33.7538 47.8599 30.2273 56.4242 30.2273 66.5C30.2273 76.5758 33.7538 85.1402 40.8068 92.1932C47.8599 99.2462 56.4242 102.773 66.5 102.773ZM66.5 87.6591C71.3364 87.6591 75.6689 86.2737 79.4977 83.5028C83.3265 80.732 86.047 77.0795 87.6591 72.5455H45.3409C46.953 77.0795 49.6735 80.732 53.5023 83.5028C57.3311 86.2737 61.6636 87.6591 66.5 87.6591ZM45.3409 54.4091C45.3409 56.122 45.9203 57.5578 47.079 58.7165C48.2377 59.8752 49.6735 60.4545 51.3864 60.4545C53.0992 60.4545 54.535 59.8752 55.6938 58.7165C56.8525 57.5578 57.4318 56.122 57.4318 54.4091C57.4318 52.6962 56.8525 51.2604 55.6938 50.1017C54.535 48.943 53.0992 48.3636 51.3864 48.3636C49.6735 48.3636 48.2377 48.943 47.079 50.1017C45.9203 51.2604 45.3409 52.6962 45.3409 54.4091ZM75.5682 54.4091C75.5682 56.122 76.1475 57.5578 77.3063 58.7165C78.465 59.8752 79.9008 60.4545 81.6136 60.4545C83.3265 60.4545 84.7623 59.8752 85.921 58.7165C87.0797 57.5578 87.6591 56.122 87.6591 54.4091C87.6591 52.6962 87.0797 51.2604 85.921 50.1017C84.7623 48.943 83.3265 48.3636 81.6136 48.3636C79.9008 48.3636 78.465 48.943 77.3063 50.1017C76.1475 51.2604 75.5682 52.6962 75.5682 54.4091ZM0 30.2273V12.0909C0 8.76591 1.1839 5.91951 3.5517 3.5517C5.91951 1.1839 8.76591 0 12.0909 0H30.2273V12.0909H12.0909V30.2273H0ZM30.2273 133H12.0909C8.76591 133 5.91951 131.816 3.5517 129.448C1.1839 127.08 0 124.234 0 120.909V102.773H12.0909V120.909H30.2273V133ZM102.773 133V120.909H120.909V102.773H133V120.909C133 124.234 131.816 127.08 129.448 129.448C127.08 131.816 124.234 133 120.909 133H102.773ZM120.909 30.2273V12.0909H102.773V0H120.909C124.234 0 127.08 1.1839 129.448 3.5517C131.816 5.91951 133 8.76591 133 12.0909V30.2273H120.909Z" fill="#414042"/>
</svg>
