<svg width="57" height="58" viewBox="0 0 57 58" fill="none" xmlns="http://www.w3.org/2000/svg">
<path d="M28.5 7.90909C34.2864 7.90909 39.1875 9.95227 43.2034 14.0386C47.2193 18.125 49.2273 23.1121 49.2273 29C49.2273 34.8879 47.2193 39.875 43.2034 43.9614C39.1875 48.0477 34.2864 50.0909 28.5 50.0909C22.7136 50.0909 17.8125 48.0477 13.7966 43.9614C9.78068 39.875 7.77273 34.8879 7.77273 29C7.77273 23.1121 9.78068 18.125 13.7966 14.0386C17.8125 9.95227 22.7136 7.90909 28.5 7.90909ZM28.5 44.8182C32.8182 44.8182 36.4886 43.2803 39.5114 40.2045C42.5341 37.1288 44.0455 33.3939 44.0455 29C44.0455 24.6061 42.5341 20.8712 39.5114 17.7955C36.4886 14.7197 32.8182 13.1818 28.5 13.1818C24.1818 13.1818 20.5114 14.7197 17.4886 17.7955C14.4659 20.8712 12.9545 24.6061 12.9545 29C12.9545 33.3939 14.4659 37.1288 17.4886 40.2045C20.5114 43.2803 24.1818 44.8182 28.5 44.8182ZM28.5 38.2273C30.5727 38.2273 32.4295 37.6231 34.0705 36.4148C35.7114 35.2064 36.8773 33.6136 37.5682 31.6364H19.4318C20.1227 33.6136 21.2886 35.2064 22.9295 36.4148C24.5705 37.6231 26.4273 38.2273 28.5 38.2273ZM19.4318 23.7273C19.4318 24.4742 19.6801 25.1004 20.1767 25.6057C20.6733 26.111 21.2886 26.3636 22.0227 26.3636C22.7568 26.3636 23.3722 26.111 23.8688 25.6057C24.3653 25.1004 24.6136 24.4742 24.6136 23.7273C24.6136 22.9803 24.3653 22.3542 23.8688 21.8489C23.3722 21.3436 22.7568 21.0909 22.0227 21.0909C21.2886 21.0909 20.6733 21.3436 20.1767 21.8489C19.6801 22.3542 19.4318 22.9803 19.4318 23.7273ZM32.3864 23.7273C32.3864 24.4742 32.6347 25.1004 33.1313 25.6057C33.6278 26.111 34.2432 26.3636 34.9773 26.3636C35.7114 26.3636 36.3267 26.111 36.8233 25.6057C37.3199 25.1004 37.5682 24.4742 37.5682 23.7273C37.5682 22.9803 37.3199 22.3542 36.8233 21.8489C36.3267 21.3436 35.7114 21.0909 34.9773 21.0909C34.2432 21.0909 33.6278 21.3436 33.1313 21.8489C32.6347 22.3542 32.3864 22.9803 32.3864 23.7273ZM0 13.1818V5.27273C0 3.82273 0.507386 2.58144 1.52216 1.54886C2.53693 0.516288 3.75682 0 5.18182 0H12.9545V5.27273H5.18182V13.1818H0ZM12.9545 58H5.18182C3.75682 58 2.53693 57.4837 1.52216 56.4511C0.507386 55.4186 0 54.1773 0 52.7273V44.8182H5.18182V52.7273H12.9545V58ZM44.0455 58V52.7273H51.8182V44.8182H57V52.7273C57 54.1773 56.4926 55.4186 55.4778 56.4511C54.4631 57.4837 53.2432 58 51.8182 58H44.0455ZM51.8182 13.1818V5.27273H44.0455V0H51.8182C53.2432 0 54.4631 0.516288 55.4778 1.54886C56.4926 2.58144 57 3.82273 57 5.27273V13.1818H51.8182Z" fill="#414042"/>
</svg>