<svg width="126" height="140" viewBox="0 0 126 140" fill="none" xmlns="http://www.w3.org/2000/svg">
<path d="M104.5 139.167C98.7361 139.167 93.8368 137.149 89.8021 133.115C85.7674 129.08 83.75 124.181 83.75 118.417C83.75 117.61 83.8076 116.774 83.9229 115.909C84.0382 115.045 84.2111 114.267 84.4417 113.575L35.6792 85.2166C33.7194 86.9458 31.5292 88.3003 29.1083 89.2802C26.6875 90.2601 24.1514 90.75 21.5 90.75C15.7361 90.75 10.8368 88.7326 6.80208 84.6979C2.76736 80.6632 0.75 75.7639 0.75 70C0.75 64.2361 2.76736 59.3368 6.80208 55.3021C10.8368 51.2673 15.7361 49.25 21.5 49.25C24.1514 49.25 26.6875 49.7399 29.1083 50.7198C31.5292 51.6996 33.7194 53.0542 35.6792 54.7833L84.4417 26.425C84.2111 25.7333 84.0382 24.9552 83.9229 24.0906C83.8076 23.226 83.75 22.3903 83.75 21.5833C83.75 15.8194 85.7674 10.9201 89.8021 6.8854C93.8368 2.85067 98.7361 0.833313 104.5 0.833313C110.264 0.833313 115.163 2.85067 119.198 6.8854C123.233 10.9201 125.25 15.8194 125.25 21.5833C125.25 27.3472 123.233 32.2465 119.198 36.2812C115.163 40.316 110.264 42.3333 104.5 42.3333C101.849 42.3333 99.3125 41.8434 96.8917 40.8635C94.4708 39.8837 92.2806 38.5292 90.3208 36.8L41.5583 65.1583C41.7889 65.85 41.9618 66.6281 42.0771 67.4927C42.1924 68.3573 42.25 69.193 42.25 70C42.25 70.8069 42.1924 71.6427 42.0771 72.5073C41.9618 73.3719 41.7889 74.15 41.5583 74.8416L90.3208 103.2C92.2806 101.471 94.4708 100.116 96.8917 99.1364C99.3125 98.1566 101.849 97.6667 104.5 97.6667C110.264 97.6667 115.163 99.684 119.198 103.719C123.233 107.753 125.25 112.653 125.25 118.417C125.25 124.181 123.233 129.08 119.198 133.115C115.163 137.149 110.264 139.167 104.5 139.167ZM104.5 28.5C106.46 28.5 108.102 27.8371 109.428 26.5114C110.754 25.1857 111.417 23.543 111.417 21.5833C111.417 19.6236 110.754 17.9809 109.428 16.6552C108.102 15.3295 106.46 14.6666 104.5 14.6666C102.54 14.6666 100.898 15.3295 99.5719 16.6552C98.2462 17.9809 97.5833 19.6236 97.5833 21.5833C97.5833 23.543 98.2462 25.1857 99.5719 26.5114C100.898 27.8371 102.54 28.5 104.5 28.5ZM21.5 76.9166C23.4597 76.9166 25.1024 76.2538 26.4281 74.9281C27.7538 73.6024 28.4167 71.9597 28.4167 70C28.4167 68.0403 27.7538 66.3976 26.4281 65.0719C25.1024 63.7462 23.4597 63.0833 21.5 63.0833C19.5403 63.0833 17.8976 63.7462 16.5719 65.0719C15.2462 66.3976 14.5833 68.0403 14.5833 70C14.5833 71.9597 15.2462 73.6024 16.5719 74.9281C17.8976 76.2538 19.5403 76.9166 21.5 76.9166ZM104.5 125.333C106.46 125.333 108.102 124.67 109.428 123.345C110.754 122.019 111.417 120.376 111.417 118.417C111.417 116.457 110.754 114.814 109.428 113.489C108.102 112.163 106.46 111.5 104.5 111.5C102.54 111.5 100.898 112.163 99.5719 113.489C98.2462 114.814 97.5833 116.457 97.5833 118.417C97.5833 120.376 98.2462 122.019 99.5719 123.345C100.898 124.67 102.54 125.333 104.5 125.333Z" fill="#414042"/>
</svg>
